<svg width="312" height="88" viewBox="0 0 312 88" fill="none" xmlns="http://www.w3.org/2000/svg">
<g clip-path="url(#clip0_2021_538)">
<path d="M102.866 28.8097V0.000244141H66.6532L66.8259 0.572002C68.0618 4.66738 68.6864 9.20598 68.6864 14.0593C68.6864 18.9126 68.0707 23.9298 66.8569 28.8097H61.8115V45.4882H68.9344L68.8857 35.591H100.549V45.4882H107.668V28.8097H102.87H102.866ZM75.6011 6.77712H95.7429V28.8097H74.1083C75.3309 24.2844 75.9466 19.3115 75.9466 14.0061C75.9466 11.7324 75.827 9.30349 75.5967 6.77712H75.6011Z" fill="white"/>
<path d="M151.827 22.5524C149.98 20.487 147.473 18.8205 144.372 17.6061C141.285 16.3961 137.865 15.7844 134.215 15.7844C130.565 15.7844 127.136 16.4049 124.031 17.6327C120.913 18.8648 118.405 20.5402 116.576 22.6056C114.72 24.7021 113.781 27.0113 113.781 29.4667C113.781 31.9222 114.72 34.1826 116.576 36.279C118.405 38.3445 120.913 40.011 124.031 41.2254C127.132 42.4354 130.56 43.0471 134.215 43.0471C137.869 43.0471 141.302 42.6171 144.571 41.7617C147.885 40.8974 150.392 39.6475 152.031 38.0431L152.403 37.6796L146.981 33.664L146.729 33.8059C145.094 34.7366 143.216 35.4059 141.147 35.7959C139.065 36.186 136.731 36.3854 134.215 36.3854C131.699 36.3854 129.161 35.9599 126.702 35.1134C124.664 34.4175 123.163 33.469 122.224 32.29L154.374 32.2413L154.445 31.8867C154.583 31.1953 154.653 30.362 154.653 29.4091C154.653 26.9536 153.705 24.6444 151.827 22.5436V22.5524ZM146.432 26.6345L122.179 26.5858C123.119 25.4068 124.625 24.4494 126.658 23.7403C131.686 21.9895 137.085 22.056 141.958 23.7403C144.018 24.4539 145.515 25.4245 146.432 26.6345Z" fill="white"/>
<path d="M165.728 16.5334L165.75 16.9988C165.847 18.9622 165.896 21.1651 165.896 23.5452C165.896 27.5741 165.599 30.8982 165.014 33.4246C164.465 35.787 163.53 36.9349 162.162 36.9349C161.524 36.9349 160.802 36.6734 160.018 36.1593L159.331 35.7116V42.1561L159.606 42.2669C161.107 42.883 162.472 43.1932 163.654 43.1932C166.122 43.1932 168.093 42.1162 169.519 39.9887C170.888 37.9366 171.849 35.4944 172.372 32.7332C172.89 29.9985 173.152 27.2948 173.152 24.6887C173.152 24.1036 173.143 23.6382 173.13 23.2925H199.765V42.3023H207.118V16.4846L165.728 16.5378V16.5334Z" fill="white"/>
<path d="M17.1872 85.2736C13.9446 84.4581 11.0476 83.319 8.50941 81.8475L7.96456 85.5573H0V41.563H50.4452V49.0402H8.64673V57.652C11.1406 56.1849 14.0022 55.0547 17.2226 54.2569C20.4474 53.4635 23.8494 53.0646 27.4374 53.0646C32.381 53.0646 36.9568 53.8314 41.1561 55.3605C45.3511 56.8941 48.6777 58.9418 51.1274 61.5213C53.577 64.0964 54.804 66.8754 54.804 69.8495C54.804 72.8235 53.5814 75.5272 51.1274 78.0801C48.6777 80.6375 45.3511 82.6808 41.1561 84.2099C36.9568 85.739 32.3854 86.5058 27.4374 86.5058C23.8494 86.5058 20.4341 86.098 17.1916 85.278L17.1872 85.2736ZM11.3001 74.3703C13.0277 75.7975 15.3267 76.9277 18.2104 77.7654C21.0897 78.6031 24.1639 79.0197 27.433 79.0197C30.7021 79.0197 33.7719 78.6031 36.6556 77.7654C39.5349 76.9277 41.8427 75.7975 43.5659 74.3703C45.2935 72.9476 46.1528 71.4185 46.1528 69.783C46.1528 68.1475 45.2935 66.5696 43.5659 65.1646C41.8427 63.7596 39.5393 62.6427 36.6556 61.8005C33.7719 60.9628 30.7021 60.5462 27.433 60.5462C24.1639 60.5462 21.0321 60.9673 18.175 61.8005C15.3134 62.6382 13.0233 63.7596 11.2957 65.1646C9.57254 66.5696 8.70875 68.1076 8.70875 69.783C8.70875 71.4584 9.57254 72.9476 11.2957 74.3703H11.3001Z" fill="white"/>
<path d="M68.6245 84.3678V85.6088H61.1826V56.0503H68.6245V65.9829C71.5791 64.5646 74.9058 63.8554 78.6134 63.8554C81.7629 63.8554 84.6688 64.3785 87.3266 65.42C89.9844 66.466 92.0929 67.8622 93.6477 69.6173C95.2025 71.3725 95.9822 73.234 95.9822 75.2064C95.9822 77.1787 95.2025 79.027 93.6477 80.7644C92.0929 82.4974 89.9844 83.8847 87.3266 84.9307C84.6688 85.9767 81.7629 86.4997 78.6134 86.4997C74.9102 86.4997 71.5791 85.7905 68.6245 84.3722V84.3678ZM70.1616 77.2762C71.0697 77.9455 72.2701 78.4774 73.7673 78.8718C75.2646 79.2663 76.8814 79.4657 78.6134 79.4657C80.3454 79.4657 81.9711 79.2663 83.486 78.8718C85.001 78.4818 86.2147 77.9499 87.1228 77.2762C88.0265 76.607 88.4827 75.8934 88.4827 75.1488C88.4827 74.4042 88.0265 73.6994 87.1228 73.0523C86.2147 72.4008 85.0054 71.8778 83.486 71.4833C81.9711 71.0933 80.3454 70.8938 78.6134 70.8938C76.8814 70.8938 75.2646 71.0933 73.7673 71.4833C72.2701 71.8778 71.0697 72.4008 70.1616 73.0523C69.2535 73.7039 68.8017 74.3997 68.8017 75.1488C68.8017 75.8978 69.2535 76.607 70.1616 77.2762ZM98.64 56.0503H106.144V85.6088H98.64V56.0503Z" fill="white"/>
<path d="M112.235 56.1121H119.916V65.5128L159.796 56.0544V63.6203L126.711 71.0088L159.796 77.9231V85.6085L119.916 76.4471V85.6706H112.235V56.1121Z" fill="white"/>
<path d="M182.658 87.6525C178.303 87.4707 174.622 86.5799 171.624 84.9754C168.625 83.3709 166.729 81.2523 165.927 78.6107C165.125 75.9691 165.506 73.0837 167.101 70.0698C168.7 67.0515 171.256 64.2592 174.777 61.6841C178.299 59.1134 182.379 57.1233 187.012 55.7138C191.646 54.3044 196.133 53.6972 200.474 53.8833C204.811 54.0739 208.478 54.9737 211.486 56.5959C214.49 58.2181 216.394 60.3677 217.209 63.0447C218.011 65.6864 217.608 68.5053 216.009 71.5014C214.41 74.4976 211.845 77.2899 208.323 79.8606C204.802 82.4313 200.744 84.4169 196.146 85.8131C191.508 87.2225 187.012 87.8342 182.658 87.6525ZM177.356 79.8385C179.593 80.5609 182.237 80.8268 185.289 80.6451C188.341 80.4634 191.278 79.936 194.109 79.0805C196.939 78.2251 199.557 77.0683 202.202 75.5436C204.846 74.0234 206.91 72.3436 208.394 70.513C209.878 68.6825 210.361 66.9185 209.847 65.221C209.333 63.5234 207.969 62.3843 205.719 61.6885C203.468 60.9926 200.82 60.7356 197.767 60.9217C194.715 61.1079 191.814 61.6176 189.063 62.4508C186.312 63.2841 183.557 64.4808 180.913 66.0055C178.264 67.5302 176.199 69.1967 174.711 71.0095C173.223 72.8222 172.731 74.5552 173.231 76.2129C173.732 77.8705 175.123 79.1204 177.356 79.8429V79.8385Z" fill="white"/>
<path d="M230.649 45.3912C226.37 45.2139 222.755 44.3363 219.805 42.7628C216.859 41.1894 214.994 39.1063 214.206 36.509C213.417 33.9117 213.794 31.0795 215.362 28.1143C216.93 25.1492 219.446 22.4012 222.906 19.8704C226.365 17.344 230.374 15.385 234.932 14.0021C239.49 12.6193 243.898 12.0209 248.159 12.2026C252.421 12.3888 256.026 13.2752 258.981 14.8708C261.931 16.462 263.805 18.5762 264.602 21.2089C265.4 23.8417 264.997 26.5764 263.42 29.5194C261.843 32.4624 259.327 35.2059 255.867 37.7323C252.407 40.2586 248.416 42.2088 243.898 43.5828C239.38 44.9568 234.923 45.5685 230.64 45.3912H230.649ZM225.44 37.7101C227.637 38.4193 230.237 38.6808 233.236 38.499C236.235 38.3173 239.123 37.8032 241.9 36.9611C244.678 36.1189 247.256 34.9843 249.856 33.4818C252.456 31.9837 254.485 30.3393 255.942 28.5398C257.4 26.7403 257.878 25.0073 257.369 23.3364C256.859 21.6654 255.521 20.5485 253.311 19.866C251.101 19.179 248.496 18.9308 245.497 19.1125C242.498 19.2942 239.65 19.795 236.943 20.615C234.201 21.4483 231.53 22.6095 228.93 24.1076C226.33 25.6057 224.297 27.2412 222.835 29.0229C221.373 30.8047 220.886 32.5111 221.382 34.1377C221.878 35.7644 223.238 36.9965 225.435 37.7057L225.44 37.7101Z" fill="white"/>
<path d="M224.611 56.0503H249.014C250.667 56.0503 252.195 56.5068 253.59 57.411C254.99 58.3196 256.102 59.4808 256.93 60.8991C257.759 62.3175 258.171 63.718 258.171 65.0965C258.171 66.8295 257.599 68.527 256.456 70.1802C257.48 71.0888 258.299 72.0994 258.91 73.2252C259.522 74.3465 259.827 75.4413 259.827 76.505C259.827 78.2026 259.433 79.7361 258.649 81.1145C257.861 82.4974 256.766 83.5877 255.371 84.3944C253.971 85.2011 252.408 85.6088 250.671 85.6088H224.616V56.0503H224.611ZM248.129 67.4012C249.821 67.4012 250.671 66.63 250.671 65.0965C250.671 64.5823 250.463 64.1214 250.051 63.7092C249.639 63.297 248.939 63.0887 247.951 63.0887H232V67.4057H248.129V67.4012ZM249.546 78.9871C250.295 78.9871 250.932 78.7433 251.468 78.2469C252 77.7549 252.266 77.1743 252.266 76.505C252.266 75.8358 252.009 75.3039 251.499 74.9094C250.99 74.515 250.334 74.3155 249.55 74.3155L232 74.4352V78.9871H249.55H249.546Z" fill="white"/>
<path d="M276.283 84.3422C272.638 82.9017 269.754 80.9825 267.628 78.5758C265.502 76.1736 264.434 73.5896 264.434 70.8327C264.434 68.0759 265.497 65.421 267.628 63.001C269.754 60.5765 272.638 58.6485 276.283 57.2081C279.925 55.7676 283.916 55.0496 288.248 55.0496C291.358 55.0496 294.312 55.4352 297.112 56.2019C299.907 56.9732 302.388 58.0458 304.558 59.4242L305.09 56.0557H312V85.6142H305.09L304.616 82.126C302.41 83.5089 299.907 84.5815 297.112 85.3483C294.312 86.1195 291.362 86.5051 288.248 86.5051C283.911 86.5051 279.925 85.7871 276.283 84.3466V84.3422ZM274.241 75.1763C275.739 76.4971 277.728 77.5431 280.208 78.3099C282.689 79.0767 285.369 79.4623 288.244 79.4623C291.118 79.4623 293.798 79.0767 296.279 78.3099C298.76 77.5387 300.749 76.4971 302.246 75.1763C303.743 73.8599 304.492 72.3884 304.492 70.7707C304.492 69.3125 303.73 67.9163 302.219 66.5734C300.704 65.2348 298.693 64.1489 296.19 63.3201C293.688 62.4913 291.039 62.0791 288.244 62.0791C285.448 62.0791 282.738 62.4913 280.239 63.3201C277.736 64.1489 275.739 65.2304 274.241 66.5734C272.744 67.9119 271.996 69.3125 271.996 70.7707C271.996 72.3884 272.744 73.8555 274.241 75.1763Z" fill="white"/>
</g>
<defs>
<clipPath id="clip0_2021_538">
<rect width="312" height="87.6828" fill="white"/>
</clipPath>
</defs>
</svg>
